<svg id="Group_52" data-name="Group 52" xmlns="http://www.w3.org/2000/svg" width="81.703" height="81.702" viewBox="0 0 81.703 81.702">
  <path id="Path_48" data-name="Path 48" d="M248.425,144.135a7.4,7.4,0,0,0-4.25-4.25,12.4,12.4,0,0,0-4.158-.773c-2.361-.107-3.07-.131-9.052-.131s-6.689.024-9.05.131a12.4,12.4,0,0,0-4.158.773,7.414,7.414,0,0,0-4.252,4.25,12.367,12.367,0,0,0-.771,4.158c-.107,2.363-.131,3.072-.131,9.052s.024,6.689.131,9.05a12.371,12.371,0,0,0,.771,4.16,7.414,7.414,0,0,0,4.252,4.25,12.355,12.355,0,0,0,4.158.771c2.361.107,3.07.131,9.05.131s6.691-.024,9.052-.131a12.355,12.355,0,0,0,4.158-.771,7.4,7.4,0,0,0,4.25-4.25,12.411,12.411,0,0,0,.773-4.16c.107-2.361.131-3.07.131-9.05s-.024-6.689-.131-9.052A12.408,12.408,0,0,0,248.425,144.135Zm-17.461,24.712a11.5,11.5,0,1,1,11.5-11.5A11.5,11.5,0,0,1,230.964,168.847Zm11.957-20.771a2.688,2.688,0,1,1,2.69-2.688A2.689,2.689,0,0,1,242.921,148.076Z" transform="translate(-190.114 -116.493)" fill="#fff"/>
  <path id="Path_49" data-name="Path 49" d="M242.976,128.5a40.852,40.852,0,0,0-40.85,40.852h0a40.851,40.851,0,0,0,81.7,0h0A40.852,40.852,0,0,0,242.976,128.5Zm22.265,50.087a16.456,16.456,0,0,1-1.041,5.437,11.466,11.466,0,0,1-6.552,6.551,16.5,16.5,0,0,1-5.437,1.041c-2.389.107-3.151.133-9.235.133s-6.846-.026-9.235-.133a16.525,16.525,0,0,1-5.437-1.041,11.455,11.455,0,0,1-6.549-6.551,16.4,16.4,0,0,1-1.041-5.437c-.11-2.389-.135-3.151-.135-9.235s.026-6.846.135-9.235a16.4,16.4,0,0,1,1.041-5.437,11.454,11.454,0,0,1,6.549-6.551,16.467,16.467,0,0,1,5.437-1.041c2.389-.109,3.153-.135,9.235-.135s6.846.026,9.235.135a16.444,16.444,0,0,1,5.437,1.041,11.466,11.466,0,0,1,6.552,6.551,16.456,16.456,0,0,1,1.041,5.437c.109,2.389.135,3.151.135,9.235S265.35,176.2,265.241,178.592Z" transform="translate(-202.126 -128.505)" fill="#fff"/>
  <path id="Path_50" data-name="Path 50" d="M225.144,144.058a7.466,7.466,0,1,0,7.466,7.466A7.466,7.466,0,0,0,225.144,144.058Z" transform="translate(-184.294 -110.672)" fill="#fff"/>
</svg>
