<svg xmlns="http://www.w3.org/2000/svg" width="81.703" height="81.702" viewBox="0 0 81.703 81.702">
  <path id="Path_46" data-name="Path 46" d="M187.243,128.5h0a40.852,40.852,0,0,0-40.852,40.852h0a40.85,40.85,0,0,0,40.852,40.85h0a40.85,40.85,0,0,0,40.85-40.85h0A40.852,40.852,0,0,0,187.243,128.5Zm11.4,24.813h-5.382c-1.9,0-2.3.777-2.3,2.743v4.748h7.678l-.738,8.337h-6.94v24.9h-9.943v-24.8h-5.173v-8.443h5.173v-6.648c0-6.238,3.336-9.5,10.735-9.5h6.886Z" transform="translate(-146.391 -128.505)" fill="#fff"/>
</svg>
