<svg xmlns="http://www.w3.org/2000/svg" width="81.74" height="81.702" viewBox="0 0 81.74 81.702">
  <path id="Path_47" data-name="Path 47" d="M132.158,182.43a40.862,40.862,0,0,0-40.871,40.852h0a40.87,40.87,0,0,0,81.74,0h0A40.861,40.861,0,0,0,132.158,182.43Zm-10.074,59.058h-8.459V214.176h8.459Zm-4.269-30.89a5.039,5.039,0,1,1,5-5.04A5.021,5.021,0,0,1,117.814,210.6Zm35.968,30.89h-8.419V227.15c0-3.93-1.495-6.126-4.6-6.126-3.387,0-5.154,2.288-5.154,6.126v14.337h-8.114V214.176H135.6v3.677a9.525,9.525,0,0,1,8.234-4.512c5.794,0,9.943,3.538,9.943,10.853Z" transform="translate(-91.287 -182.43)" fill="#fff"/>
</svg>
