<svg xmlns="http://www.w3.org/2000/svg" width="77.167" height="81.702" viewBox="0 0 77.167 81.702">
  <path id="Path_45" data-name="Path 45" d="M74.136,128.5c-21.308,0-38.584,18.291-38.584,40.852h0c0,22.561,17.276,40.85,38.584,40.85s38.584-18.289,38.584-40.85h0C112.719,146.8,95.444,128.5,74.136,128.5Zm16.349,31.974c.531,12.562-8.316,26.566-23.976,26.566a22.925,22.925,0,0,1-12.931-4.014,16.285,16.285,0,0,0,12.489-3.7,8.515,8.515,0,0,1-7.879-6.2,7.989,7.989,0,0,0,3.807-.15,8.844,8.844,0,0,1-6.765-8.872,8.08,8.08,0,0,0,3.822,1.118A9.264,9.264,0,0,1,56.442,153.3a23.526,23.526,0,0,0,17.385,9.331c-1.231-5.585,2.771-10.965,8.215-10.965a8.216,8.216,0,0,1,6.159,2.818,16.366,16.366,0,0,0,5.354-2.168,8.87,8.87,0,0,1-3.708,4.941,16.1,16.1,0,0,0,4.843-1.406A17.692,17.692,0,0,1,90.485,160.479Z" transform="translate(-35.552 -128.505)" fill="#fffffe"/>
</svg>
